<svg width="182" height="182" viewBox="0 0 182 182" fill="none" xmlns="http://www.w3.org/2000/svg">
<rect width="182" height="182" fill="#676767" fill-opacity="0.12"/>
<path d="M27.93 27.9292V59.7171H91.4708C99.8953 59.7171 107.975 63.0637 113.932 69.0207C119.889 74.9777 123.235 83.0572 123.235 91.4817H155C155.003 83.1369 153.362 74.8733 150.171 67.1629C146.98 59.4525 142.301 52.4464 136.401 46.5447C130.501 40.643 123.497 35.9614 115.788 32.7673C108.079 29.5732 99.8155 27.9292 91.4708 27.9292H27.93Z" fill="white"/>
<path d="M27.93 91.47V123.246H91.4708C99.8953 123.246 107.975 126.593 113.932 132.55C119.889 138.507 123.235 146.586 123.235 155.011H155C155.002 146.667 153.359 138.405 150.167 130.696C146.976 122.987 142.296 115.982 136.397 110.081C130.497 104.181 123.494 99.5004 115.785 96.307C108.077 93.1136 99.8146 91.47 91.4708 91.47H27.93Z" fill="white"/>
</svg>
