<svg width="484" height="159" viewBox="0 0 484 159" fill="none" xmlns="http://www.w3.org/2000/svg">
<g clip-path="url(#clip0_2002_2)">
<path d="M358.71 27.27V54.52H304.24C297.02 54.5227 290.096 57.3927 284.992 62.499C279.887 67.6054 277.02 74.5299 277.02 81.75H249.79C249.785 74.5967 251.189 67.5124 253.923 60.9021C256.658 54.2919 260.668 48.2853 265.724 43.2257C270.781 38.1661 276.786 34.1528 283.394 31.415C290.003 28.6772 297.087 27.2687 304.24 27.27H358.71Z" fill="black"/>
<path d="M358.71 81.74V108.98H304.24C297.02 108.983 290.096 111.853 284.992 116.959C279.887 122.065 277.02 128.99 277.02 136.21H249.79C249.786 129.057 251.192 121.974 253.926 115.365C256.661 108.756 260.671 102.751 265.728 97.6922C270.785 92.6337 276.789 88.6212 283.397 85.884C290.005 83.1469 297.087 81.7387 304.24 81.74H358.71Z" fill="black"/>
<path d="M0.0799561 27.27V54.52H54.5499C61.7718 54.52 68.6979 57.3889 73.8045 62.4955C78.9111 67.6021 81.78 74.5282 81.78 81.75H109.01C109.013 74.5966 107.606 67.5126 104.87 60.9029C102.134 54.2932 98.1234 48.2873 93.0661 43.2281C88.0087 38.1689 82.0042 34.1556 75.3955 31.4175C68.7868 28.6793 61.7034 27.27 54.5499 27.27H0.0799561Z" fill="black"/>
<path d="M0.0799561 81.74V108.98H54.5499C61.7718 108.98 68.6979 111.849 73.8045 116.956C78.9111 122.062 81.78 128.988 81.78 136.21H109.01C109.011 129.057 107.604 121.975 104.867 115.366C102.131 108.757 98.1197 102.753 93.0625 97.6945C88.0053 92.6364 82.0012 88.624 75.3932 85.8865C68.7852 83.149 61.7026 81.74 54.5499 81.74H0.0799561Z" fill="black"/>
<path d="M124.93 136.2H152.16V81.74C152.16 81.74 153.16 54.51 179.4 54.51C205.64 54.51 206.63 81.74 206.63 81.74V136.2H233.86V81.74C233.86 81.74 233.86 27.27 179.4 27.27C124.94 27.27 124.93 81.73 124.93 81.73V136.2Z" fill="black"/>
<path d="M374.63 136.2H401.86V81.74C401.86 81.74 402.86 54.51 429.09 54.51C455.32 54.51 456.32 81.74 456.32 81.74V136.2H483.55V81.74C483.55 81.74 483.55 27.27 429.09 27.27C374.63 27.27 374.63 81.73 374.63 81.73V136.2Z" fill="black"/>
</g>
<defs>
<clipPath id="clip0_2002_2">
<rect width="483" height="158" fill="white" transform="translate(0.22998 0.13501)"/>
</clipPath>
</defs>
</svg>
